<?xml version="1.0" encoding="utf-8"?>
<!-- Generator: Adobe Illustrator 21.0.2, SVG Export Plug-In . SVG Version: 6.00 Build 0)  -->
<svg version="1.1" id="Layer_1" xmlns="http://www.w3.org/2000/svg" xmlns:xlink="http://www.w3.org/1999/xlink" x="0px" y="0px"
	 viewBox="0 0 370.2 83.6" style="enable-background:new 0 0 370.2 83.6;" xml:space="preserve">
<style type="text/css">
	.st0{fill:#F58220;}
	.st1{fill:none;}
	.st2{fill:#FFFFFF;}
</style>
<path class="st0" d="M111.8,17.1c2.7-1.2,5.4-3.4,5.4-7.9V9.1c0-2.2-0.8-4-2.2-5.4c-1.9-1.9-5-3-8.9-3H91.6v34h15.1
	c7.4,0,12.3-3.4,12.3-9.3v-0.1C119.1,20.7,115.9,18.3,111.8,17.1L111.8,17.1z M105.5,15.9H95.4V4.2h10.3c4.9,0,7.5,2.2,7.5,5.5v0.1
	C113.3,13.8,110.1,15.9,105.5,15.9L105.5,15.9z M115.2,25.2c0,3.8-3.2,6.1-8.4,6.1H95.4v-12h10.7C112.1,19.3,115.2,21.4,115.2,25.2
	L115.2,25.2L115.2,25.2z"/>
<polygon class="st0" points="123.1,34.7 126.9,34.7 126.9,0.7 123.1,0.7 "/>
<path class="st0" d="M147.9,35.3c5.7,0,10.5-2.4,13.6-5.2V16.6h-14V20h10.3v8.5c-2.3,1.9-5.9,3.4-9.8,3.4c-8.3,0-13.5-6-13.5-14.1
	v-0.1c0-7.6,5.4-13.9,12.9-13.9c4.8,0,7.7,1.6,10.3,3.9l2.5-2.9c-3.4-2.9-6.9-4.5-12.7-4.5c-10.2,0-17,8.2-17,17.6V18
	C130.6,27.5,137.2,35.3,147.9,35.3L147.9,35.3z"/>
<g>
	<path class="st1" d="M219.8,10.2h-5v6.7h4.9c2.7,0,4.4-1.2,4.4-3.3v-0.1C224.1,11.3,222.4,10.2,219.8,10.2z"/>
	<path class="st1" d="M185.1,10c-4.3,0-7,3.6-7,7.6v0.1c0,4,2.8,7.7,7.1,7.7s7-3.6,7-7.6v-0.1C192.3,13.7,189.5,10,185.1,10z"/>
	<polygon class="st1" points="249.8,22.1 256,22.1 252.9,13.8 	"/>
	<path class="st0" d="M349.7,25.4v-3.7h16.6v-8.2h-16.6V10h17.8V0.7h-29v13.9h-16.2v7.3h5.8v3.4c-0.9,0.5-1.9,0.8-3.9,0.8
		c-4.8,0-8.1-3.3-8.1-8.1v-0.1c0-4.6,3.2-8,7.6-8c2.8,0,5.3,1.1,7.5,3l6.4-7.7c-3.7-3.2-8.4-5.1-14.2-5.1c-9.1,0-16.1,5.4-18.2,13.2
		V0.8h-11.3v15l-12.1-15h-10.6V31L258.4,0.5h-11.3l-12.9,30.9l-5.6-8.2c4.1-2,6.7-5.4,6.7-10.4v-0.1c0-3.5-1.1-6-3.1-8.1
		c-2.4-2.4-6.2-3.9-12.2-3.9h-16.6v14.4C202.2,6.5,194.7,0,185.1,0c-10.5,0-18.6,7.9-18.6,17.7v0.1c0,9.9,8,17.6,18.5,17.6
		c9.6,0,17.1-6.6,18.4-15.2v14.5h11.4V25h2.4l6.4,9.7h9.3h3.6h8.5l1.7-4.6h11.9l1.8,4.6h12.3l0,0h9.7V19L295,34.7h10.1V22.3
		c2.1,8,9.5,13.1,18.5,13.1c6,0,11-2,14.7-4.9v4.1h29.2v-9.3h-17.8V25.4z M192.3,17.8c0,4-2.7,7.6-7,7.6c-4.4,0-7.1-3.6-7.1-7.7
		v-0.1c0-4,2.7-7.6,7-7.6C189.5,10,192.3,13.7,192.3,17.8L192.3,17.8z M224.1,13.6c0,2.1-1.7,3.3-4.4,3.3h-4.9v-6.7h5
		C222.4,10.2,224.1,11.3,224.1,13.6L224.1,13.6z M249.8,22.1l3.1-8.3l3.1,8.3H249.8z"/>
</g>
<path class="st0" d="M117.6,60c3.5-1.5,7-4.5,7-10.2v-0.1c0-2.8-1-5.2-2.8-7c-2.5-2.4-6.5-3.9-11.5-3.9H91.6v44H111
	c9.6,0,16-4.5,16-12v-0.1C127,64.6,122.8,61.6,117.6,60L117.6,60z M109.4,58.4h-13V43.2h13.4c6.3,0,9.8,2.8,9.8,7.2v0.1
	C119.5,55.7,115.4,58.4,109.4,58.4L109.4,58.4z M122,70.5c0,4.9-4.2,7.9-10.8,7.9H96.4V62.9h13.9C118,62.9,122,65.7,122,70.5
	L122,70.5L122,70.5z"/>
<polygon class="st0" points="132.2,82.8 137.1,82.8 137.1,38.8 132.2,38.8 "/>
<path class="st0" d="M163.7,83.5c7.4,0,13.6-3.1,17.7-6.7V59.3h-18.2v4.5h13.4v11c-3,2.5-7.7,4.4-12.7,4.4
	c-10.7,0-17.4-7.8-17.4-18.3v-0.1c0-9.8,7-18.1,16.7-18.1c6.2,0,10,2.1,13.4,5l3.2-3.8c-4.4-3.7-9-5.8-16.4-5.8
	c-13.2,0-22.1,10.7-22.1,22.8V61C141.3,73.5,149.9,83.5,163.7,83.5L163.7,83.5z"/>
<polygon class="st0" points="187.1,82.8 201.9,82.8 201.9,38.8 187.1,38.8 "/>
<g>
	<polygon class="st1" points="304.5,66.4 312.6,66.4 308.5,55.7 	"/>
	<path class="st1" d="M222.5,51.6H220V70h2.5c6.7,0,11.1-2.8,11.1-9.1v-0.1C233.5,54.4,229.2,51.6,222.5,51.6z"/>
	<path class="st0" d="M351.5,54.4c-4.7-0.9-5.9-1.6-5.9-2.8v-0.1c0-1.1,1-1.8,3.2-1.8c4.1,0,9.1,1.3,13.2,4.3l7.2-9.9
		c-5.1-4-11.4-6-19.9-6c-12.1,0-18.7,6.5-18.7,14.8V53c0,9.3,8.7,12.1,18.5,14.2c4.7,0.9,6.1,1.6,6.1,2.9v0.1c0,1.2-1.1,1.9-3.8,1.9
		c-5.2,0-10.6-1.5-15.4-5.2l-5.6,6.6l-14.6-35h-14.6l-15.4,36.8v-4.5h-23.4V66h21.5V55.4h-21.5v-4.5h23.1V38.8H248v18.1
		c-1.5-11-10.1-18.1-26-18.1h-16.8v44h16.3c16.1,0,24.9-7.6,26.5-18.7v18.7h34.7h3.2h12.6l2.3-5.9h15.4l2.3,5.9h16l-1.4-3.3
		c5,2.7,11.1,4.1,17.7,4.1c11.8,0,19.4-5.7,19.4-14.9v-0.1C370.3,59.7,362.8,56.4,351.5,54.4z M233.5,60.8c0,6.4-4.3,9.1-11.1,9.1
		H220V51.5h2.5c6.7,0,11.1,2.8,11.1,9.1L233.5,60.8L233.5,60.8z M304.5,66.4l4-10.7l4,10.7H304.5z"/>
</g>
<path class="st0" d="M81.6,82.2V0.6H0v81.6H81.6L81.6,82.2z M70.9,32.8h-7.7c-0.2-1-0.4-2-0.8-2.8c-3-5.7-11.4-5.8-14.9-0.6v25.5
	c0,5.2,3,9.8,9.4,9.8v7.6H24.5v-7.6c6.4,0,9.4-4.6,9.4-9.8V29.4C30.4,24.2,22.1,24.3,19,30c-0.4,0.8-0.7,1.8-0.8,2.8h-7.7V12.1h60.3
	v20.7H70.9z"/>
<path class="st2" d="M71,33.2h-7.7c-0.2-1-0.4-2-0.8-2.8c-3-5.7-11.4-5.8-14.9-0.6v25.5c0,5.2,3,9.8,9.4,9.8v7.6H24.6v-7.6
	c6.4,0,9.4-4.6,9.4-9.8V29.8c-3.5-5.2-11.8-5.1-14.9,0.6c-0.4,0.8-0.7,1.8-0.8,2.8h-7.7V12.5H71V33.2L71,33.2z"/>
</svg>
