<?xml version="1.0" encoding="utf-8"?>
<!-- Generator: Adobe Illustrator 24.1.2, SVG Export Plug-In . SVG Version: 6.00 Build 0)  -->
<svg version="1.1" id="utk_footer_logo" xmlns="http://www.w3.org/2000/svg" xmlns:xlink="http://www.w3.org/1999/xlink" x="0px"
	 y="0px" viewBox="0 0 209.6 46.8" style="enable-background:new 0 0 209.6 46.8;" xml:space="preserve">
<style type="text/css">
	.st0{fill:#58595B;}
	.st1{fill:#F58220;}
	.st2{fill:#FFFFFF;}
</style>
<path class="st0" d="M69.9,15c0.3,0.2,0.5,0.6,0.6,1.3c0.1,0.3,0.2,0.5,0.3,0.4c0.2,0,0.3-0.2,0.3-0.5c0-0.1,0-0.4-0.1-0.7
	C71,15.4,71,15,71,14.4s-0.1-0.9-0.2-1c-0.1-0.1-0.4-0.2-0.9-0.2H54.4c-0.3,0-0.5,0.1-0.6,0.2s-0.2,0.4-0.2,0.9c0,0.4-0.1,1-0.2,1.7
	c-0.1,0.5-0.2,0.9-0.2,1.1c0,0.2,0.1,0.4,0.3,0.4s0.3-0.2,0.4-0.5c0.2-0.9,0.5-1.4,0.8-1.8c0.3-0.3,0.9-0.5,1.7-0.5h3.8
	c0.4,0,0.6,0.1,0.7,0.1c0.1,0.1,0.2,0.3,0.2,0.7l0,0.4v14.2c0,0.8-0.1,1.4-0.4,1.7s-0.8,0.5-1.5,0.6c-0.3,0-0.5,0.1-0.5,0.3
	c0,0.2,0.1,0.3,0.4,0.3c0.1,0,0.4,0,1-0.1c0.3,0,0.6,0,1,0l1.1,0l1,0c0.7,0,1.1,0,1.3,0c0.3,0.1,0.6,0.1,0.7,0.1
	c0.3,0,0.4-0.1,0.4-0.3c0-0.2-0.2-0.3-0.5-0.3c-1.2-0.2-1.8-0.9-1.9-2l0-0.6V15.7c0-0.4,0-0.7,0.2-0.9c0.1-0.1,0.4-0.2,0.8-0.2h4
	C69.1,14.7,69.6,14.8,69.9,15L69.9,15z M77.7,14.5c0.2-0.1,0.6-0.2,1.2-0.2h2.2c1.5,0,2.5,0.1,3.1,0.2c0.6,0.1,0.9,0.4,1.1,0.9
	c0.1,0.3,0.2,0.6,0.2,0.9v0.4c0,0.3,0.1,0.4,0.3,0.4c0.2,0,0.3-0.1,0.3-0.2s0.1-0.5,0.2-1l0.1-0.8c0.1-0.6,0.1-1,0.1-1.1
	c0-0.1,0-0.2,0-0.3c0-0.3-0.2-0.4-0.5-0.4c-0.1,0-0.3,0-0.6,0.1c-0.1,0-0.5,0-1,0.1l-2,0.1c-0.9,0-1.9,0.1-3.1,0.1
	c-1.9,0-3.6-0.1-4.9-0.2c-0.4-0.1-0.7-0.1-1-0.1c-0.4,0-0.7,0.1-0.7,0.4c0,0.2,0.1,0.3,0.4,0.3c0.9,0,1.5,0.2,1.8,0.7
	s0.4,1.4,0.4,2.8v12.1l0,0.9c0,1.1-0.3,1.8-1,2l-0.5,0.2c-0.2,0.1-0.4,0.2-0.4,0.3c0,0.2,0.2,0.3,0.5,0.3c0.1,0,0.4,0,0.8-0.1
	c0.7-0.1,1.9-0.2,3.5-0.2c1.2,0,2.7,0.1,4.5,0.3c0.5,0,0.8,0.1,1.1,0.1c1.3,0,2.3-0.5,3.2-1.5c0.7-0.9,1.1-1.6,1.1-2.2
	c0-0.3-0.1-0.4-0.3-0.4c-0.1,0-0.2,0.1-0.3,0.3c-1.1,1.7-3.5,2.5-7.2,2.5c-1.2,0-1.9-0.1-2.2-0.3c-0.3-0.2-0.4-0.7-0.4-1.5v-5.3
	l0-0.5c0-0.3,0.1-0.5,0.2-0.6c0.2-0.1,0.5-0.1,0.9-0.1h3.2c0.8,0,1.4,0.1,1.8,0.3c0.3,0.2,0.6,0.7,0.7,1.3l0.1,0.4
	c0,0.2,0.2,0.3,0.4,0.3c0.2,0,0.3-0.1,0.3-0.4c0-0.1,0-0.2,0-0.4c-0.1-0.6-0.1-1.1-0.1-1.7c0-0.8,0-1.6,0.1-2.5c0-0.1,0-0.2,0-0.3
	c0-0.2-0.1-0.4-0.3-0.4c-0.2,0-0.3,0.1-0.4,0.3c-0.1,0.6-0.3,1-0.4,1.2c-0.2,0.2-0.5,0.3-1,0.4c-0.6,0.1-1.4,0.2-2.4,0.2h-2.2
	c-0.4,0-0.7,0-0.7-0.1c-0.1-0.1-0.1-0.4-0.1-0.8v-5.8C77.4,14.9,77.5,14.6,77.7,14.5L77.7,14.5z M106.8,17.8v-1.5
	c0-0.9,0.1-1.5,0.3-1.9c0.2-0.3,0.6-0.6,1.2-0.7c0.2-0.1,0.3-0.1,0.3-0.3c0-0.2-0.2-0.3-0.4-0.3c-0.2,0-0.4,0-0.7,0.1
	c-0.3,0.1-0.8,0.1-1.4,0.1c-1.1,0-2,0-2.7-0.1c-0.3,0-0.5,0-0.6,0c-0.3,0-0.4,0.1-0.4,0.3c0,0.2,0.1,0.3,0.4,0.4
	c1,0.2,1.7,0.4,2,0.8c0.4,0.3,0.6,0.9,0.7,1.7l0.2,3.3l0,1.9v7.1c0,0.2-0.1,0.3-0.2,0.3c-0.1,0-0.2-0.1-0.4-0.3l-13.2-15
	c-0.2-0.3-0.5-0.4-0.7-0.4c-0.1,0-0.3,0-0.5,0l-0.2,0l-1,0l-0.6,0c-0.1,0-0.2,0-0.2,0c-0.2,0-0.3,0.1-0.3,0.3s0.1,0.3,0.4,0.3
	c1,0.1,1.8,0.7,2.3,1.6c0.5,1,0.8,2.3,0.8,3.9v9.8c0,1-0.1,1.8-0.4,2.2c-0.3,0.5-0.8,0.8-1.6,1.1c-0.3,0.1-0.4,0.2-0.4,0.3
	c0,0.2,0.2,0.3,0.4,0.3c0.1,0,0.3,0,0.5,0c0.3,0,0.7-0.1,1.1-0.1l0.7,0l1.5,0.1c0.7,0,1.1,0.1,1.2,0.1c0.2,0,0.3,0,0.4,0
	c0.2,0,0.3-0.1,0.3-0.3c0-0.2-0.2-0.3-0.5-0.4c-0.8-0.1-1.3-0.3-1.5-0.5c-0.3-0.2-0.4-0.7-0.5-1.3l0-1l0-0.6v-9.7
	c0-0.4,0.1-0.6,0.3-0.6c0.1,0,0.1,0,0.2,0.1l0.1,0.2l12.1,13.8l0.3,0.4c0.1,0.1,0.2,0.1,0.3,0.1c0.2,0,0.3-0.1,0.4-0.3
	c0.1-0.2,0.1-0.9,0.1-2v-12L106.8,17.8L106.8,17.8z M127.6,17.8v-1.5c0-0.9,0.1-1.5,0.3-1.9c0.2-0.3,0.6-0.6,1.1-0.7
	c0.2-0.1,0.3-0.1,0.3-0.3c0-0.2-0.1-0.3-0.4-0.3c-0.2,0-0.4,0-0.7,0.1c-0.3,0.1-0.8,0.1-1.4,0.1c-1.1,0-2,0-2.7-0.1
	c-0.3,0-0.5,0-0.6,0c-0.3,0-0.4,0.1-0.4,0.3c0,0.2,0.1,0.3,0.4,0.4c1,0.2,1.7,0.4,2,0.8c0.4,0.3,0.6,0.9,0.7,1.7l0.2,3.3l0,1.9v7.1
	c0,0.2-0.1,0.3-0.2,0.3c-0.1,0-0.2-0.1-0.4-0.3l-13.2-14.9c-0.2-0.3-0.5-0.4-0.7-0.4c-0.1,0-0.3,0-0.5,0l-0.2,0l-1,0l-0.6,0
	c-0.1,0-0.2,0-0.2,0c-0.2,0-0.3,0.1-0.3,0.3s0.1,0.3,0.4,0.3c1,0.1,1.8,0.7,2.3,1.6s0.8,2.3,0.8,3.9V29c0,1-0.1,1.8-0.4,2.2
	c-0.3,0.5-0.8,0.8-1.6,1.1c-0.3,0.1-0.4,0.2-0.4,0.3c0,0.2,0.2,0.3,0.4,0.3c0.1,0,0.3,0,0.5,0c0.3,0,0.7-0.1,1.1-0.1l0.7,0l1.5,0.1
	c0.7,0,1.1,0.1,1.2,0.1c0.2,0,0.3,0,0.4,0c0.2,0,0.3-0.1,0.3-0.3c0-0.2-0.2-0.3-0.5-0.4c-0.8-0.1-1.3-0.3-1.5-0.5
	c-0.3-0.2-0.4-0.7-0.5-1.3l0-1l0-0.6v-9.7c0-0.4,0.1-0.6,0.3-0.6c0.1,0,0.1,0,0.2,0.1l0.1,0.2l12.1,13.8l0.3,0.4
	c0.1,0.1,0.2,0.1,0.3,0.1c0.2,0,0.3-0.1,0.4-0.3c0.1-0.2,0.1-0.9,0.1-2v-12L127.6,17.8L127.6,17.8z M135.4,14.5
	c0.2-0.1,0.6-0.2,1.1-0.2h2.2c1.5,0,2.5,0.1,3.1,0.2c0.6,0.1,0.9,0.4,1.1,0.9c0.1,0.3,0.2,0.6,0.2,0.9v0.4c0,0.3,0.1,0.4,0.3,0.4
	c0.2,0,0.3-0.1,0.3-0.2s0.1-0.5,0.1-1l0.1-0.8c0.1-0.6,0.1-1,0.1-1.1c0-0.1,0-0.2,0-0.3c0-0.3-0.2-0.4-0.5-0.4c-0.1,0-0.3,0-0.6,0.1
	c-0.1,0-0.5,0-1,0.1l-2,0.1c-0.9,0-1.9,0.1-3.1,0.1c-1.9,0-3.6-0.1-4.9-0.2c-0.4-0.1-0.7-0.1-1-0.1c-0.4,0-0.6,0.1-0.6,0.4
	c0,0.2,0.1,0.3,0.4,0.3c0.9,0,1.5,0.2,1.8,0.7c0.3,0.5,0.4,1.4,0.4,2.8v12.1l0,0.9c0,1.1-0.3,1.8-1,2l-0.5,0.2
	c-0.2,0.1-0.4,0.2-0.4,0.3c0,0.2,0.1,0.3,0.5,0.3c0.1,0,0.4,0,0.8-0.1c0.7-0.1,1.9-0.2,3.5-0.2c1.2,0,2.7,0.1,4.5,0.3
	c0.5,0,0.8,0.1,1.1,0.1c1.3,0,2.3-0.5,3.2-1.5c0.7-0.9,1.1-1.6,1.1-2.2c0-0.3-0.1-0.4-0.3-0.4c-0.1,0-0.2,0.1-0.3,0.3
	c-1.1,1.7-3.5,2.5-7.2,2.5c-1.2,0-1.9-0.1-2.2-0.3c-0.3-0.2-0.4-0.7-0.4-1.5v-5.3l0-0.5c0-0.3,0.1-0.5,0.2-0.6
	c0.2-0.1,0.5-0.1,0.9-0.1h3.2c0.8,0,1.4,0.1,1.8,0.3c0.3,0.2,0.6,0.7,0.7,1.3l0.1,0.4c0,0.2,0.2,0.3,0.4,0.3c0.2,0,0.3-0.1,0.3-0.4
	c0-0.1,0-0.2,0-0.4c-0.1-0.6-0.1-1.1-0.1-1.7c0-0.8,0-1.6,0.1-2.5c0-0.1,0-0.2,0-0.3c0-0.2-0.1-0.4-0.3-0.4c-0.2,0-0.3,0.1-0.4,0.3
	c-0.1,0.6-0.3,1-0.4,1.2c-0.1,0.2-0.5,0.3-1,0.4c-0.6,0.1-1.4,0.2-2.4,0.2H136c-0.4,0-0.7,0-0.7-0.1s-0.1-0.4-0.1-0.8v-5.8
	C135.1,14.9,135.2,14.6,135.4,14.5L135.4,14.5z M150.1,14.3c-1.1,1-1.7,2.2-1.7,3.8c0,1.4,0.4,2.5,1.3,3.4s2.4,1.7,4.5,2.4
	c2.1,0.7,3.3,1.2,3.7,1.6c0.8,0.7,1.3,1.6,1.3,2.7c0,1.1-0.5,2-1.4,2.8c-0.9,0.8-2,1.2-3.3,1.2c-1.3,0-2.5-0.4-3.6-1.2
	c-1.1-0.8-1.8-1.8-2.2-3c-0.1-0.5-0.3-0.7-0.5-0.7c-0.2,0-0.3,0.1-0.3,0.4c0,0.4,0.1,1,0.4,1.8c0.2,0.8,0.3,1.2,0.4,1.3
	c0.1,0.5,0.2,0.9,0.3,1s0.2,0.2,0.3,0.4c0.4,0.3,1.1,0.5,1.9,0.7s1.7,0.3,2.4,0.3c2,0,3.7-0.6,5-1.7c1.3-1.1,1.9-2.6,1.9-4.4
	c0-2.6-1.8-4.5-5.3-5.7c-1.8-0.6-2.9-1-3.4-1.2c-0.5-0.2-0.9-0.6-1.3-1.1c-0.4-0.6-0.7-1.3-0.7-2.1c0-0.9,0.4-1.7,1-2.3
	c0.7-0.6,1.6-0.9,2.6-0.9c1.3,0,2.5,0.3,3.5,1s1.8,1.5,2.1,2.6c0.2,0.5,0.3,0.7,0.5,0.7c0.2,0,0.3-0.1,0.3-0.4c0-0.1,0-0.3-0.1-0.6
	l-0.2-1.5c-0.1-0.8-0.2-1.3-0.2-1.4c0-0.5-0.1-0.7-0.4-0.7c-0.1,0-0.1,0-0.2,0.1l-0.2,0.2c-0.1,0.1-0.2,0.1-0.3,0.1
	c-0.1,0-0.2,0-0.3-0.1l-1-0.4c-0.7-0.3-1.6-0.4-2.6-0.4C152.7,12.8,151.3,13.3,150.1,14.3L150.1,14.3z M165.6,14.3
	c-1.1,1-1.7,2.2-1.7,3.8c0,1.4,0.4,2.5,1.3,3.4s2.4,1.7,4.5,2.4c2.1,0.7,3.3,1.2,3.7,1.6c0.8,0.7,1.3,1.6,1.3,2.7
	c0,1.1-0.5,2-1.4,2.8c-0.9,0.8-2,1.2-3.3,1.2c-1.3,0-2.5-0.4-3.6-1.2c-1.1-0.8-1.8-1.8-2.2-3c-0.1-0.5-0.3-0.7-0.5-0.7
	c-0.2,0-0.3,0.1-0.3,0.4c0,0.4,0.1,1,0.4,1.8c0.2,0.8,0.3,1.2,0.4,1.3c0.1,0.5,0.2,0.9,0.3,1s0.2,0.2,0.3,0.4
	c0.4,0.3,1.1,0.5,1.9,0.7s1.7,0.3,2.4,0.3c2,0,3.7-0.6,5-1.7c1.3-1.1,1.9-2.6,1.9-4.4c0-2.6-1.8-4.5-5.3-5.7c-1.8-0.6-2.9-1-3.4-1.2
	c-0.5-0.2-0.9-0.6-1.3-1.1c-0.4-0.6-0.7-1.3-0.7-2.1c0-0.9,0.4-1.7,1-2.3c0.7-0.6,1.6-0.9,2.6-0.9c1.3,0,2.5,0.3,3.5,1
	s1.8,1.5,2.1,2.6c0.2,0.5,0.3,0.7,0.5,0.7c0.2,0,0.3-0.1,0.3-0.4c0-0.1,0-0.3-0.1-0.6l-0.2-1.5c-0.1-0.8-0.2-1.3-0.2-1.4
	c0-0.5-0.1-0.7-0.4-0.7c-0.1,0-0.1,0-0.2,0.1l-0.2,0.2c-0.1,0.1-0.2,0.1-0.3,0.1c-0.1,0-0.2,0-0.3-0.1l-1-0.4
	c-0.7-0.3-1.6-0.4-2.6-0.4C168.2,12.8,166.7,13.3,165.6,14.3L165.6,14.3z M183,14.5c0.2-0.1,0.6-0.2,1.1-0.2h2.2
	c1.5,0,2.5,0.1,3.1,0.2c0.6,0.1,0.9,0.4,1.1,0.9c0.1,0.3,0.2,0.6,0.2,0.9v0.4c0,0.3,0.1,0.4,0.3,0.4c0.2,0,0.3-0.1,0.3-0.2
	s0.1-0.5,0.1-1l0.1-0.8c0.1-0.6,0.1-1,0.1-1.1c0-0.1,0-0.2,0-0.3c0-0.3-0.2-0.4-0.5-0.4c-0.1,0-0.3,0-0.6,0.1c-0.1,0-0.5,0-1,0.1
	l-2,0.1c-0.9,0-1.9,0.1-3.1,0.1c-1.9,0-3.6-0.1-4.9-0.2c-0.4-0.1-0.7-0.1-1-0.1c-0.4,0-0.6,0.1-0.6,0.4c0,0.2,0.1,0.3,0.4,0.3
	c0.9,0,1.5,0.2,1.8,0.7c0.3,0.5,0.4,1.4,0.4,2.8v12.1l0,0.9c0,1.1-0.3,1.8-1,2l-0.5,0.2c-0.2,0.1-0.4,0.2-0.4,0.3
	c0,0.2,0.1,0.3,0.5,0.3c0.1,0,0.4,0,0.8-0.1c0.7-0.1,1.9-0.2,3.5-0.2c1.2,0,2.7,0.1,4.5,0.3c0.5,0,0.8,0.1,1.1,0.1
	c1.3,0,2.3-0.5,3.2-1.5c0.7-0.9,1.1-1.6,1.1-2.2c0-0.3-0.1-0.4-0.3-0.4c-0.1,0-0.2,0.1-0.3,0.3c-1.1,1.7-3.5,2.5-7.2,2.5
	c-1.2,0-1.9-0.1-2.2-0.3c-0.3-0.2-0.4-0.7-0.4-1.5v-5.3l0-0.5c0-0.3,0.1-0.5,0.2-0.6c0.2-0.1,0.5-0.1,0.9-0.1h3.2
	c0.8,0,1.4,0.1,1.8,0.3c0.3,0.2,0.6,0.7,0.7,1.3l0.1,0.4c0,0.2,0.2,0.3,0.4,0.3c0.2,0,0.3-0.1,0.3-0.4c0-0.1,0-0.2,0-0.4
	c-0.1-0.6-0.1-1.1-0.1-1.7c0-0.8,0-1.6,0.1-2.5c0-0.1,0-0.2,0-0.3c0-0.2-0.1-0.4-0.3-0.4c-0.2,0-0.3,0.1-0.4,0.3
	c-0.1,0.6-0.3,1-0.4,1.2c-0.1,0.2-0.5,0.3-1,0.4c-0.6,0.1-1.4,0.2-2.4,0.2h-2.2c-0.4,0-0.7,0-0.7-0.1s-0.1-0.4-0.1-0.8v-5.8
	C182.7,14.9,182.8,14.6,183,14.5L183,14.5z M199.4,14.5c0.2-0.1,0.6-0.2,1.1-0.2h2.2c1.5,0,2.5,0.1,3.1,0.2c0.6,0.1,0.9,0.4,1.1,0.9
	c0.1,0.3,0.2,0.6,0.2,0.9v0.4c0,0.3,0.1,0.4,0.3,0.4c0.2,0,0.3-0.1,0.3-0.2s0.1-0.5,0.1-1l0.1-0.8c0.1-0.6,0.1-1,0.1-1.1
	c0-0.1,0-0.2,0-0.3c0-0.3-0.2-0.4-0.5-0.4c-0.1,0-0.3,0-0.6,0.1c-0.1,0-0.5,0-1,0.1l-2,0.1c-0.9,0-1.9,0.1-3.1,0.1
	c-1.9,0-3.6-0.1-4.9-0.2c-0.4-0.1-0.7-0.1-1-0.1c-0.4,0-0.6,0.1-0.6,0.4c0,0.2,0.1,0.3,0.4,0.3c0.9,0,1.5,0.2,1.8,0.7
	c0.3,0.5,0.4,1.4,0.4,2.8v12.1l0,0.9c0,1.1-0.3,1.8-1,2l-0.5,0.2c-0.2,0.1-0.4,0.2-0.4,0.3c0,0.2,0.1,0.3,0.5,0.3
	c0.1,0,0.4,0,0.8-0.1c0.7-0.1,1.9-0.2,3.5-0.2c1.2,0,2.7,0.1,4.5,0.3c0.5,0,0.8,0.1,1.1,0.1c1.3,0,2.3-0.5,3.2-1.5
	c0.7-0.9,1.1-1.6,1.1-2.2c0-0.3-0.1-0.4-0.3-0.4c-0.1,0-0.2,0.1-0.3,0.3c-1.1,1.7-3.5,2.5-7.2,2.5c-1.2,0-1.9-0.1-2.2-0.3
	c-0.3-0.2-0.4-0.7-0.4-1.5v-5.3l0-0.5c0-0.3,0.1-0.5,0.2-0.6c0.2-0.1,0.5-0.1,0.9-0.1h3.2c0.8,0,1.4,0.1,1.8,0.3
	c0.3,0.2,0.6,0.7,0.7,1.3l0.1,0.4c0,0.2,0.2,0.3,0.4,0.3c0.2,0,0.3-0.1,0.3-0.4c0-0.1,0-0.2,0-0.4c-0.1-0.6-0.1-1.1-0.1-1.7
	c0-0.8,0-1.6,0.1-2.5c0-0.1,0-0.2,0-0.3c0-0.2-0.1-0.4-0.3-0.4c-0.2,0-0.3,0.1-0.4,0.3c-0.1,0.6-0.3,1-0.4,1.2
	c-0.1,0.2-0.5,0.3-1,0.4c-0.6,0.1-1.4,0.2-2.4,0.2h-2.2c-0.4,0-0.7,0-0.7-0.1s-0.1-0.4-0.1-0.8v-5.8
	C199.2,14.9,199.2,14.6,199.4,14.5L199.4,14.5z"/>
<path class="st0" d="M58.9,1.1C59,1,59.4,0.9,60.1,0.9c0.5,0,0.8,0.1,1.1,0.3c0.2,0.2,0.4,0.5,0.5,0.9c0,0.2,0.1,0.2,0.2,0.2
	C62,2.3,62,2.2,62,2.1s0-0.3,0-0.5c0-0.3-0.1-0.5-0.1-0.5l0-0.5c0-0.2-0.1-0.3-0.4-0.3c-0.1,0-0.2,0-0.4,0c-1.1,0.1-2.2,0.1-3.2,0.1
	l-1.5,0l-1.3,0c-0.3,0-0.5,0-0.7,0c-0.1,0-0.2,0-0.2,0c-0.2,0-0.2,0.1-0.3,0.2l0,0.4l-0.1,0.6l-0.1,0.6c0,0.2-0.1,0.4-0.1,0.5
	c0,0.1,0.1,0.2,0.2,0.2c0.1,0,0.2-0.1,0.2-0.3l0-0.2c0.1-0.5,0.2-0.8,0.3-0.9s0.2-0.2,0.5-0.3c0.3-0.1,0.9-0.2,1.8-0.2
	c0.4,0,0.5,0.2,0.5,0.5v5.7l0,0.3c0,0.4-0.1,0.7-0.3,0.9c-0.2,0.2-0.4,0.3-0.8,0.4c-0.1,0-0.2,0-0.2,0.1c0,0-0.1,0.1-0.1,0.2
	c0,0.1,0.1,0.2,0.2,0.2c0.1,0,0.2,0,0.3,0L57.7,9c0.2,0,0.4,0,0.7,0c0.1,0,0.2,0,0.3,0L59.4,9l0.5,0c0.1,0,0.1,0,0.2,0
	c0.1,0,0.2-0.1,0.2-0.1c0-0.1-0.1-0.2-0.2-0.2c-0.5,0-0.9-0.2-1.1-0.5s-0.3-0.8-0.3-1.5V1.8C58.6,1.4,58.7,1.2,58.9,1.1L58.9,1.1z
	 M71.1,4.8c0.1,0.1,0.1,0.3,0.1,0.8V7l0,0.3c0,0.4-0.1,0.8-0.2,1c-0.1,0.2-0.3,0.4-0.6,0.4c-0.1,0-0.2,0.1-0.2,0.2
	c0,0.1,0.1,0.2,0.2,0.2c0.1,0,0.2,0,0.5,0C71.3,9,71.7,8.9,72,8.9c0.4,0,0.9,0,1.4,0.1c0.2,0,0.4,0,0.4,0c0.2,0,0.3-0.1,0.3-0.2
	c0-0.1-0.1-0.2-0.2-0.2c-0.4,0-0.8-0.1-0.9-0.4C72.7,8,72.6,7.6,72.6,7V1.5c0-0.6,0.2-0.9,0.8-0.9c0.1,0,0.2-0.1,0.2-0.2
	c0-0.1-0.1-0.2-0.2-0.2c-0.2,0-0.4,0-0.7,0c-0.5,0.1-0.8,0.1-1,0.1c-0.5,0-0.9,0-1.2-0.1c-0.2,0-0.3,0-0.4,0c-0.1,0-0.2,0.1-0.2,0.2
	c0,0.1,0.1,0.2,0.2,0.2l0.3,0.1c0.6,0.1,0.9,0.4,0.9,1V3c0,0.5,0,0.8-0.1,0.9C71,4,70.9,4,70.6,4h-3c-0.3,0-0.6,0-0.6-0.1
	c-0.1-0.1-0.1-0.3-0.1-0.8V1.5c0-0.6,0.2-0.9,0.8-0.9c0.1,0,0.2-0.1,0.2-0.2c0-0.1-0.1-0.2-0.2-0.2c-0.2,0-0.4,0-0.7,0
	c-0.5,0.1-0.8,0.1-1,0.1c-0.5,0-0.9,0-1.2-0.1c-0.2,0-0.3,0-0.4,0c-0.1,0-0.2,0.1-0.2,0.2c0,0.1,0.1,0.2,0.2,0.2
	c0.5,0.1,0.8,0.2,0.9,0.3c0.2,0.1,0.2,0.4,0.2,0.7v5.3l0,0.3c0,0.4-0.1,0.8-0.2,1c-0.1,0.2-0.3,0.4-0.6,0.4c-0.1,0-0.2,0.1-0.2,0.2
	C64.5,9,64.5,9,64.7,9c0.1,0,0.2,0,0.5,0c0.4-0.1,0.8-0.1,1.1-0.1c0.4,0,0.9,0,1.4,0.1c0.2,0,0.4,0,0.4,0c0.2,0,0.3-0.1,0.3-0.2
	c0-0.1-0.1-0.2-0.2-0.2c-0.4,0-0.8-0.1-1-0.4C67,8,66.9,7.6,66.9,7V5.4c0-0.3,0-0.5,0.1-0.6s0.3-0.1,0.6-0.1h3
	C70.9,4.7,71.1,4.7,71.1,4.8L71.1,4.8z M78.9,1.5c0-0.4,0.1-0.6,0.3-0.6l0.4-0.1h0.8c0.7,0,1.2,0.1,1.5,0.3s0.5,0.5,0.5,0.9
	c0,0.2,0,0.3,0.1,0.3c0.2,0,0.2-0.2,0.2-0.5c0-0.2,0-0.4-0.1-0.8c0-0.2,0-0.4,0-0.5c0-0.1-0.1-0.2-0.2-0.2c0,0-0.1,0-0.1,0
	c-0.3,0-1.2,0.1-2.6,0.1l-2.4,0l-0.7,0c-0.1,0-0.2,0-0.3,0c-0.1,0-0.2,0-0.2,0c-0.1,0-0.2,0.1-0.2,0.2c0,0.1,0.1,0.2,0.2,0.2
	c0.5,0.1,0.8,0.2,1,0.4s0.2,0.5,0.2,1v5.1c0,0.4,0,0.7-0.1,0.9c-0.1,0.3-0.1,0.4-0.2,0.6c-0.1,0.1-0.2,0.2-0.5,0.3
	c-0.1,0-0.1,0.1-0.1,0.2c0,0.1,0.1,0.1,0.2,0.1c0.1,0,0.2,0,0.4,0C77.7,9,78.2,9,78.5,9c0.5,0,0.8,0,1.1,0l0.7,0.1
	c0.3,0,0.6,0.1,0.9,0.1c0.5,0,0.8-0.1,1.1-0.2c0.3-0.1,0.5-0.4,0.7-0.7c0.2-0.4,0.3-0.8,0.3-1.2c0-0.1,0-0.1-0.1-0.1
	c0,0-0.1-0.1-0.1,0c0,0-0.1,0-0.1,0.1c-0.5,1-1.7,1.6-3.4,1.6c-0.2,0-0.4,0-0.4-0.1C79.2,8.3,79.1,8.2,79,8
	c-0.1-0.3-0.1-0.7-0.1-1.3V6.1c0-0.5,0-0.8,0-1c0-0.2,0.1-0.3,0.2-0.4s0.2-0.1,0.4-0.1h0.4c0.4,0,0.7,0,0.9,0c0.2,0,0.3,0.1,0.4,0.2
	c0.2,0.2,0.3,0.5,0.4,0.8c0,0.2,0.1,0.2,0.2,0.2c0.1,0,0.1,0,0.1,0s0-0.1,0-0.1l0-0.3c0-0.2,0-0.5,0-0.9c0-0.5-0.1-0.8-0.1-1
	c0-0.1,0-0.2,0-0.3c0-0.2,0-0.2,0-0.3c0-0.1-0.1-0.2-0.1-0.2c-0.1,0-0.2,0-0.2,0.1l-0.1,0.3c-0.2,0.5-0.6,0.7-1,0.7h-0.5l-0.3,0
	l-0.2,0C79.2,4.1,79,4,79,3.9s-0.1-0.4-0.1-0.8V1.7L78.9,1.5L78.9,1.5z M97.1,0.4c0,0.1,0.1,0.2,0.2,0.2c0.4,0,0.7,0.1,0.9,0.3
	s0.3,0.5,0.4,0.9l0,1.3v0.5c0,1.2-0.1,2.1-0.2,2.7S98,7.5,97.7,7.8c-0.5,0.5-1.2,0.7-2,0.7c-0.8,0-1.5-0.2-2-0.7
	c-0.3-0.3-0.6-0.7-0.7-1.1c-0.1-0.4-0.2-1.2-0.2-2.2l0-1.1l0.1-1.6c0-0.4,0.1-0.7,0.2-0.8s0.3-0.2,0.5-0.3c0.1,0,0.2-0.1,0.2-0.1
	s0.1-0.1,0.1-0.1c0-0.1-0.1-0.2-0.3-0.2c-0.1,0-0.2,0-0.4,0c-0.5,0.1-1,0.1-1.4,0.1c-0.3,0-0.7,0-1.2-0.1c-0.1,0-0.2,0-0.3,0
	c-0.1,0-0.2,0.1-0.2,0.2c0,0.1,0.1,0.2,0.2,0.2c0.3,0,0.5,0.1,0.7,0.2c0.2,0.1,0.3,0.2,0.3,0.3c0.1,0.1,0.1,0.3,0.1,0.6l0,1.2
	l-0.1,2.5c0,1.6,0.4,2.7,1.2,3.2C93.2,9,94,9.2,95.1,9.2c1.5,0,2.6-0.5,3.3-1.5c0.3-0.4,0.5-1,0.6-1.7c0.1-0.8,0.2-1.8,0.2-3l0-0.8
	l0-0.6c0-0.7,0.2-1,0.5-1.1l0.2,0c0.1,0,0.2-0.1,0.2-0.2c0-0.1-0.1-0.2-0.2-0.2c-0.1,0-0.1,0-0.2,0c-0.2,0-0.3,0-0.6,0.1l-0.6,0
	l-0.7,0c-0.3,0-0.4,0-0.5,0c0,0-0.1,0-0.1,0C97.1,0.2,97.1,0.3,97.1,0.4L97.1,0.4L97.1,0.4z M105.7,1.4l-0.4-0.5
	c-0.2-0.3-0.4-0.5-0.5-0.5c-0.1-0.1-0.2-0.1-0.3-0.1c-0.1,0-0.2,0-0.3,0c-0.4,0-0.7,0.1-1.1,0.1l-0.3,0l-0.4,0
	c-0.2,0-0.2,0.1-0.2,0.2c0,0.1,0.1,0.1,0.2,0.2c1,0.1,1.4,0.8,1.4,2.1v2.8l0,1.5c0,0.5-0.1,0.9-0.2,1.2c-0.1,0.3-0.4,0.5-0.7,0.6
	c-0.1,0-0.2,0.1-0.2,0.2c0,0.1,0.1,0.2,0.2,0.2c0.1,0,0.2,0,0.3,0c0.3-0.1,0.7-0.1,1.2-0.1c0.4,0,0.8,0,1.2,0.1c0.1,0,0.2,0,0.2,0
	c0.1,0,0.2-0.1,0.2-0.2c0-0.1-0.1-0.1-0.2-0.2c-0.7-0.1-1.1-0.3-1.2-0.8c-0.1-0.4-0.2-1.3-0.2-2.7V2.8l0-0.2c0-0.2,0.1-0.3,0.2-0.3
	c0,0,0.1,0.1,0.2,0.2l5.8,6.5c0.1,0.1,0.2,0.1,0.2,0.1c0.1,0,0.1-0.1,0.1-0.2l0-0.8l0-0.5l0-0.7l0-0.6l0.1-4V2
	c0-0.9,0.3-1.4,0.8-1.5c0.1,0,0.2-0.1,0.2-0.2c0-0.1-0.1-0.2-0.2-0.2c0,0-0.1,0-0.2,0c-0.6,0.1-1.1,0.1-1.4,0.1c-0.2,0-0.3,0-0.6,0
	c-0.3,0-0.6-0.1-0.7-0.1c-0.1,0-0.2,0.1-0.2,0.2c0,0.1,0.1,0.1,0.2,0.2c0.6,0,1,0.2,1.2,0.6c0.2,0.4,0.3,1,0.3,2
	c0,0.8,0,1.8-0.1,2.7c0,0.3-0.1,0.4-0.2,0.4c-0.1,0-0.3-0.2-0.6-0.5l-0.2-0.2L106,1.7C106,1.7,105.9,1.6,105.7,1.4L105.7,1.4
	L105.7,1.4z M117,1.6c0-0.4,0-0.6,0.1-0.7s0.3-0.2,0.6-0.3c0.1,0,0.1,0,0.2-0.1c0,0,0-0.1,0-0.2c0-0.1-0.1-0.2-0.2-0.2
	c-0.2,0-0.6,0-1,0.1l-0.5,0c-0.3,0-0.7,0-0.9,0c-0.4,0-0.6,0-0.8-0.1c-0.2,0-0.3-0.1-0.3-0.1c-0.1,0-0.2,0.1-0.2,0.2
	c0,0.1,0,0.1,0.1,0.2c0.1,0,0.2,0.1,0.4,0.1c0.4,0.1,0.6,0.2,0.8,0.3c0.1,0.2,0.2,0.4,0.2,0.8V7l0,0.6c0,0.4-0.1,0.6-0.2,0.8
	c-0.1,0.2-0.3,0.3-0.6,0.4l-0.2,0.1l0,0.1c0,0.1,0.1,0.1,0.2,0.1c0.1,0,0.2,0,0.5-0.1c0.2,0,0.6-0.1,1-0.1c0.3,0,0.8,0,1.3,0.1
	c0.2,0,0.4,0,0.5,0c0.3,0,0.4-0.1,0.4-0.2c0-0.1-0.1-0.2-0.3-0.2c-0.3,0-0.6-0.1-0.8-0.3s-0.3-0.4-0.4-0.8L117,7L117,1.6L117,1.6z
	 M123.1,1.1c0-0.3,0.2-0.5,0.5-0.6c0.2,0,0.3-0.1,0.3-0.2c0-0.1-0.1-0.2-0.2-0.2c-0.1,0-0.3,0-0.6,0l-0.7,0l-1.1,0
	c-0.3,0-0.5,0-0.8,0c-0.1,0-0.2,0-0.2,0c-0.1,0-0.2,0.1-0.2,0.2c0,0.1,0.1,0.2,0.3,0.2c0.3,0.1,0.5,0.2,0.7,0.5
	c0.2,0.2,0.4,0.8,0.7,1.5c0.2,0.7,0.6,1.4,0.9,2.3l1.5,3.4l0.2,0.4l0.2,0.3c0.1,0.1,0.1,0.1,0.2,0.1c0.1,0,0.2-0.1,0.3-0.3
	c0-0.1,0.2-0.4,0.4-0.8c0-0.1,0.2-0.5,0.6-1.3l1.1-2.4l1-2.2c0.3-0.6,0.5-1.1,0.7-1.3s0.4-0.3,0.6-0.4c0.1,0,0.2-0.1,0.2-0.2
	c0-0.1,0-0.2-0.1-0.2c-0.1,0-0.1,0-0.3,0c-0.3,0.1-0.6,0.1-1,0.1c-0.1,0-0.3,0-0.6,0l-0.7,0c-0.2,0-0.3,0-0.4,0
	c-0.1,0-0.2,0-0.2,0.1s0.1,0.2,0.2,0.2c0.3,0.1,0.6,0.2,0.8,0.3s0.3,0.4,0.3,0.6c0,0.5-0.2,1.2-0.7,2.3L125.5,7
	c-0.1,0.1-0.1,0.2-0.2,0.2c-0.1,0-0.1-0.1-0.2-0.2l-1.4-3.5C123.3,2.3,123.1,1.5,123.1,1.1L123.1,1.1L123.1,1.1z M134.1,1.5
	c0-0.4,0.1-0.6,0.3-0.6l0.4-0.1h0.8c0.7,0,1.2,0.1,1.5,0.3s0.5,0.5,0.5,0.9c0,0.2,0,0.3,0.1,0.3c0.2,0,0.2-0.2,0.2-0.5
	c0-0.2,0-0.4-0.1-0.8c0-0.2,0-0.4,0-0.5c0-0.1-0.1-0.2-0.2-0.2c0,0-0.1,0-0.1,0c-0.3,0-1.2,0.1-2.6,0.1l-2.4,0l-0.6,0
	c-0.1,0-0.2,0-0.3,0c-0.1,0-0.2,0-0.2,0c-0.1,0-0.2,0.1-0.2,0.2c0,0.1,0.1,0.2,0.2,0.2c0.5,0.1,0.8,0.2,1,0.4s0.2,0.5,0.2,1V7
	c0,0.4,0,0.7-0.1,0.9c-0.1,0.3-0.1,0.4-0.2,0.6c-0.1,0.1-0.2,0.2-0.5,0.3c-0.1,0-0.1,0.1-0.1,0.2c0,0.1,0.1,0.1,0.2,0.1
	c0.1,0,0.2,0,0.4,0c0.6,0,1.1-0.1,1.4-0.1c0.5,0,0.8,0,1.1,0l0.7,0.1c0.3,0,0.6,0.1,0.9,0.1c0.5,0,0.8-0.1,1.1-0.2s0.5-0.4,0.7-0.7
	c0.2-0.4,0.3-0.8,0.3-1.2c0-0.1,0-0.1-0.1-0.1c0,0-0.1-0.1-0.1,0c0,0-0.1,0-0.1,0.1c-0.5,1-1.7,1.6-3.4,1.6c-0.2,0-0.4,0-0.4-0.1
	c-0.1-0.1-0.2-0.2-0.3-0.4c-0.1-0.3-0.1-0.7-0.1-1.3V6.1c0-0.5,0-0.8,0-1c0-0.2,0.1-0.3,0.1-0.4c0.1-0.1,0.2-0.1,0.4-0.1h0.4
	c0.4,0,0.7,0,0.9,0c0.2,0,0.3,0.1,0.4,0.2c0.2,0.2,0.3,0.5,0.4,0.8c0,0.2,0.1,0.2,0.2,0.2c0.1,0,0.1,0,0.1,0c0,0,0-0.1,0-0.1l0-0.3
	c0-0.2,0-0.5,0-0.9c0-0.5-0.1-0.8-0.1-1c0-0.1,0-0.2,0-0.3c0-0.2,0-0.2,0-0.3c0-0.1-0.1-0.2-0.1-0.2c-0.1,0-0.1,0-0.2,0.1l-0.1,0.3
	c-0.2,0.5-0.6,0.7-1,0.7H135l-0.3,0l-0.2,0c-0.2,0-0.4-0.1-0.4-0.2S134,3.5,134,3.1V1.7L134.1,1.5L134.1,1.5z M143.3,5.2
	c0-0.2,0-0.3,0.1-0.3l0.3-0.1h0.4c0.3,0,0.6,0.1,0.7,0.2s0.3,0.4,0.6,0.9c0.6,1.2,1.1,2,1.4,2.4c0.4,0.4,0.8,0.6,1.2,0.6
	c0.3,0,0.6-0.1,0.9-0.2c0.4-0.2,0.5-0.3,0.5-0.4c0-0.1,0-0.1-0.1-0.1c0,0-0.1,0-0.1,0c-0.1,0-0.2,0-0.3,0c-0.2,0-0.4-0.1-0.6-0.2
	c-0.2-0.2-0.4-0.4-0.6-0.8l-0.7-1.2l-0.6-1c-0.1-0.1-0.1-0.2-0.2-0.3c0-0.1-0.1-0.1-0.1-0.2c0-0.1,0-0.1,0.1-0.1
	c0.4-0.2,0.7-0.4,1-0.8c0.2-0.3,0.4-0.7,0.4-1.2c0-0.7-0.3-1.2-0.8-1.7s-1.2-0.7-2-0.7c-0.3,0-0.8,0-1.5,0.1
	c-0.6,0.1-1.1,0.1-1.6,0.1c-0.4,0-0.8,0-1.1-0.1c-0.1,0-0.2,0-0.2,0c-0.1,0-0.2,0.1-0.2,0.2s0.1,0.2,0.3,0.2c0.5,0.1,0.8,0.2,1,0.5
	c0.1,0.2,0.2,0.5,0.2,1v4.6l0,0.2v0.6c0,0.3-0.1,0.5-0.2,0.7s-0.3,0.3-0.6,0.4c-0.1,0-0.1,0.1-0.1,0.2c0,0.1,0.1,0.2,0.2,0.2
	c0.1,0,0.1,0,0.2,0l0.4,0l0.5-0.1c0.2,0,0.5,0,0.8,0c0.3,0,0.7,0,1.1,0c0.1,0,0.2,0,0.3,0c0.1,0,0.2-0.1,0.2-0.2s-0.1-0.2-0.3-0.2
	c-0.4,0-0.7-0.2-0.9-0.5c-0.1-0.3-0.2-0.8-0.2-1.6L143.3,5.2L143.3,5.2z M143.5,0.9c0.1-0.1,0.3-0.2,0.6-0.2c0.6,0,1.2,0.2,1.6,0.6
	c0.4,0.4,0.6,1,0.6,1.6c0,0.5-0.2,0.9-0.5,1.2c-0.2,0.1-0.3,0.2-0.5,0.3s-0.6,0-1.4,0c-0.3,0-0.4,0-0.5-0.1s-0.1-0.2-0.1-0.5V1.5
	C143.3,1.2,143.4,1,143.5,0.9L143.5,0.9z M152.2,0.8c-0.5,0.5-0.7,1.1-0.7,1.8c0,0.6,0.2,1.1,0.5,1.5c0.3,0.4,0.9,0.8,1.9,1.2l1,0.4
	c0.4,0.2,0.7,0.4,0.9,0.6c0.2,0.2,0.3,0.5,0.3,0.8c0,0.4-0.2,0.8-0.5,1.1s-0.7,0.5-1.2,0.5c-0.6,0-1.1-0.2-1.6-0.8s-0.9-1.1-1.1-1.8
	c0-0.1-0.1-0.2-0.1-0.2c-0.1,0-0.2,0.1-0.2,0.3c0,0.2,0.1,0.5,0.2,1.1c0.1,0.4,0.2,0.7,0.2,0.9c0,0.2,0.1,0.3,0.1,0.3
	s0.1,0.1,0.3,0.1c0.1,0,0.4,0.1,0.7,0.2c0.6,0.2,1.1,0.3,1.4,0.3c0.7,0,1.4-0.3,1.9-0.8s0.8-1.2,0.8-1.9c0-0.7-0.2-1.2-0.6-1.7
	c-0.3-0.4-1-0.8-2-1.2c-0.9-0.3-1.4-0.6-1.5-0.8c-0.2-0.2-0.4-0.5-0.4-0.9c0-0.4,0.1-0.7,0.4-0.9s0.6-0.4,1-0.4
	c0.6,0,1.1,0.2,1.6,0.7s0.8,1,0.9,1.5c0,0.2,0.1,0.2,0.2,0.2c0.1,0,0.2-0.1,0.2-0.3c0,0,0-0.1,0-0.1L156.7,2l-0.1-0.6
	c0-0.1,0-0.1,0-0.2l0-0.5c0-0.1,0-0.2-0.1-0.2c0,0-0.1,0-0.1,0l-0.2,0.1c-0.1,0-0.1,0-0.2,0c-0.1,0-0.2,0-0.4-0.1l-0.4-0.2
	c-0.4-0.2-0.8-0.2-1.2-0.2C153.2,0.1,152.7,0.3,152.2,0.8L152.2,0.8z M162,1.6c0-0.4,0-0.6,0.1-0.7c0.1-0.1,0.3-0.2,0.6-0.3
	c0.1,0,0.1,0,0.2-0.1c0,0,0-0.1,0-0.2c0-0.1-0.1-0.2-0.2-0.2c-0.2,0-0.6,0-1,0.1l-0.5,0c-0.4,0-0.6,0-0.9,0c-0.4,0-0.6,0-0.8-0.1
	c-0.1,0-0.3-0.1-0.4-0.1c-0.1,0-0.1,0.1-0.1,0.2c0,0.1,0,0.1,0.1,0.2c0.1,0,0.2,0.1,0.4,0.1c0.4,0.1,0.6,0.2,0.8,0.3
	s0.2,0.4,0.2,0.8V7l0,0.6c0,0.4-0.1,0.6-0.1,0.8c-0.1,0.2-0.3,0.3-0.6,0.4l-0.2,0.1l0,0.1c0,0.1,0.1,0.1,0.2,0.1s0.2,0,0.5-0.1
	c0.2,0,0.6-0.1,1-0.1c0.4,0,0.8,0,1.4,0.1c0.2,0,0.4,0,0.5,0c0.3,0,0.4-0.1,0.4-0.2c0-0.1-0.1-0.2-0.3-0.2c-0.3,0-0.6-0.1-0.8-0.3
	s-0.3-0.4-0.4-0.8L162,7L162,1.6L162,1.6z M170.4,1.1c0.2-0.1,0.6-0.1,1.2-0.1c0.5,0,0.9,0.1,1.1,0.3c0.2,0.2,0.4,0.5,0.5,0.9
	c0,0.2,0.1,0.2,0.2,0.2c0.1,0,0.2-0.1,0.2-0.2s0-0.3,0-0.5c0-0.3-0.1-0.5-0.1-0.5l0-0.5c0-0.2-0.1-0.3-0.4-0.3c-0.1,0-0.2,0-0.4,0
	c-1.1,0.1-2.2,0.1-3.2,0.1l-1.6,0l-1.3,0c-0.3,0-0.5,0-0.7,0c-0.1,0-0.2,0-0.2,0c-0.2,0-0.2,0.1-0.3,0.2l0,0.4l-0.1,0.6l-0.1,0.6
	c0,0.2-0.1,0.4-0.1,0.5c0,0.1,0.1,0.2,0.2,0.2c0.1,0,0.2-0.1,0.2-0.3l0.1-0.2c0.1-0.5,0.2-0.8,0.3-0.9s0.2-0.2,0.4-0.3
	c0.3-0.1,0.9-0.2,1.8-0.2c0.4,0,0.5,0.2,0.5,0.5v5.7l0,0.3c0,0.4-0.1,0.7-0.3,0.9c-0.2,0.2-0.4,0.3-0.8,0.4c-0.1,0-0.2,0-0.2,0.1
	c0,0-0.1,0.1-0.1,0.2c0,0.1,0.1,0.2,0.2,0.2c0.1,0,0.2,0,0.3,0l1.4-0.1c0.2,0,0.4,0,0.7,0c0.1,0,0.2,0,0.3,0L171,9l0.5,0
	c0.1,0,0.1,0,0.2,0c0.1,0,0.2-0.1,0.2-0.1c0-0.1-0.1-0.2-0.2-0.2c-0.5,0-0.9-0.2-1.1-0.5s-0.3-0.8-0.3-1.5V1.8
	C170.1,1.4,170.2,1.2,170.4,1.1L170.4,1.1z M180.4,5.2c0-0.1,0.1-0.2,0.2-0.3c0.4-0.7,0.9-1.6,1.5-2.6c0.3-0.6,0.6-1,0.8-1.2
	s0.5-0.4,0.8-0.4c0.1,0,0.2-0.1,0.2-0.2c0-0.1-0.1-0.2-0.2-0.2c-0.2,0-0.4,0-0.5,0l-0.5,0c-0.2,0-0.3,0-0.5,0c-0.3,0-0.5,0-0.6,0
	l-0.4-0.1c-0.1,0-0.2,0-0.3,0c-0.1,0-0.2,0.1-0.2,0.2c0,0.1,0.1,0.1,0.2,0.2c0.3,0,0.5,0.1,0.7,0.3c0.2,0.2,0.3,0.3,0.3,0.5
	c0,0.2-0.2,0.7-0.7,1.6c-0.2,0.4-0.4,0.7-0.4,0.8c-0.2,0.4-0.4,0.6-0.5,0.6c-0.1,0-0.3-0.2-0.4-0.5c-0.1-0.1-0.2-0.3-0.4-0.7l-0.5-1
	c-0.3-0.6-0.5-1-0.5-1.2c0-0.2,0.2-0.4,0.5-0.4c0.1,0,0.2-0.1,0.2-0.2c0-0.1-0.1-0.2-0.3-0.2c-0.1,0-0.3,0-0.5,0
	c-0.4,0-0.7,0.1-1.1,0.1c-0.4,0-0.8,0-1.2-0.1c-0.2,0-0.4,0-0.5,0c-0.1,0-0.2,0.1-0.2,0.2c0,0.1,0.1,0.2,0.2,0.2
	c0.5,0.1,1,0.4,1.4,1.2l1,1.8c0.3,0.5,0.5,0.9,0.7,1.3c0.2,0.3,0.3,0.6,0.3,0.9V7c0,0.6-0.1,1-0.2,1.2s-0.5,0.4-1,0.5
	c-0.1,0-0.2,0.1-0.2,0.1c0,0.1,0.1,0.2,0.1,0.2c0.1,0,0.2,0,0.4,0c0.3-0.1,0.8-0.1,1.6-0.1c0.3,0,0.6,0,0.8,0l0.9,0.1
	c0.1,0,0.2,0,0.3,0c0.2,0,0.3-0.1,0.3-0.2c0-0.1-0.1-0.2-0.2-0.2c-0.8,0-1.2-0.3-1.3-0.8l0-0.4V5.6C180.4,5.4,180.4,5.2,180.4,5.2
	L180.4,5.2z M193.3,0.5c-0.6,0.3-1.2,0.6-1.6,1.1c-0.4,0.4-0.6,0.9-0.9,1.4s-0.3,1.2-0.3,1.7c0,1.3,0.4,2.4,1.2,3.2s1.9,1.2,3.3,1.2
	c1.4,0,2.6-0.5,3.4-1.4c0.8-0.9,1.3-2.1,1.3-3.5c0-1.3-0.4-2.3-1.2-3c-0.8-0.8-1.9-1.2-3.2-1.2C194.6,0.1,193.9,0.2,193.3,0.5
	L193.3,0.5z M196.9,1.4c0.4,0.4,0.7,0.9,1,1.5s0.4,1.3,0.4,2c0,1.2-0.3,2.1-0.8,2.8c-0.5,0.7-1.2,1-2.1,1c-1,0-1.8-0.4-2.4-1.3
	s-0.9-1.9-0.9-3.3c0-1.1,0.2-2,0.7-2.7c0.5-0.6,1.1-0.9,2-0.9C195.7,0.6,196.4,0.9,196.9,1.4L196.9,1.4L196.9,1.4z M204.5,1.4
	c0-0.2,0.1-0.4,0.1-0.5c0.1-0.1,0.3-0.1,0.5-0.1l0.3,0l0.8,0c0.9,0,1.5,0.3,1.7,0.8c0,0.1,0,0.1,0,0.2v0.2c0,0.1,0,0.2,0.1,0.2
	c0.2,0,0.2-0.2,0.2-0.5c0-0.1,0-0.1,0-0.2L208.3,1c0,0,0-0.2,0-0.5c0-0.2-0.1-0.3-0.2-0.3c-0.1,0-0.3,0-0.5,0
	c-0.6,0.1-1.2,0.1-1.8,0.1l-1.7,0l-1.1,0c-0.3,0-0.6,0-0.8,0c-0.2,0-0.3,0-0.3,0c-0.1,0-0.2,0.1-0.2,0.2c0,0.1,0.1,0.2,0.2,0.2
	c0.4,0,0.7,0.1,0.9,0.3c0.2,0.2,0.3,0.5,0.3,1v5.2c0,0.5,0,0.9-0.1,1.1c-0.1,0.2-0.3,0.4-0.5,0.4c-0.1,0-0.2,0.1-0.2,0.2
	c0,0.1,0.1,0.2,0.2,0.2c0.1,0,0.3,0,0.6-0.1c0.2,0,0.5,0,0.8,0h0.7c0.5,0,0.8,0,0.9,0c0.2,0,0.3,0,0.4,0c0.1,0,0.1-0.1,0.1-0.2
	c0-0.1-0.1-0.2-0.2-0.2c-0.5,0-0.8-0.2-1-0.4c-0.2-0.3-0.3-0.8-0.3-1.4V6.2l0-0.5c0-0.5,0.1-0.8,0.1-0.9c0.1-0.1,0.5-0.1,1.1-0.1
	c0.5,0,0.9,0.1,1.1,0.2s0.3,0.4,0.4,0.9c0,0.1,0.1,0.2,0.1,0.2c0.1,0,0.2-0.1,0.2-0.2c0-0.1,0-0.2,0-0.3l-0.1-1.2c0-0.3,0-0.6,0-0.9
	c0-0.1,0-0.1,0-0.2c0-0.1,0-0.1,0-0.2c0-0.1-0.1-0.2-0.2-0.2c-0.1,0-0.1,0-0.1,0.2c-0.2,0.4-0.3,0.7-0.5,0.8
	C206.5,4,206.3,4,205.9,4l-0.7,0l-0.2,0c-0.2,0-0.3,0-0.4-0.1s-0.1-0.2-0.1-0.5L204.5,1.4L204.5,1.4z"/>
<path class="st0" d="M57.3,39.6c0-0.5,0-0.8,0.1-1c0.1-0.2,0.3-0.3,0.7-0.4c0.1,0,0.2-0.1,0.2-0.2c0-0.1-0.1-0.2-0.2-0.2
	c-0.1,0-0.2,0-0.3,0C57.4,38,57,38,56.5,38c-0.6,0-1.1,0-1.5-0.1c-0.1,0-0.2,0-0.3,0c-0.1,0-0.2,0-0.2,0.2c0,0.1,0,0.2,0,0.2
	c0,0,0.1,0,0.2,0.1c0.3,0,0.6,0.1,0.8,0.2c0.2,0.1,0.3,0.3,0.4,0.5l0.1,0.4l0,0.2v5.1c0,0.5-0.1,0.9-0.2,1.2
	c-0.1,0.2-0.3,0.4-0.6,0.4c-0.1,0-0.2,0.1-0.2,0.2c0,0.1,0.1,0.2,0.2,0.2s0.4,0,0.7,0c0.4,0,0.9-0.1,1.4-0.1c0.4,0,0.7,0,0.9,0.1
	c0.2,0,0.3,0,0.4,0c0.1,0,0.2-0.1,0.2-0.2c0-0.1-0.1-0.2-0.3-0.2c-0.3,0-0.6-0.2-0.7-0.5c-0.1-0.3-0.2-0.8-0.2-1.5v-0.3
	c0-0.4,0-0.6,0-0.7c0-0.1,0.1-0.2,0.2-0.3l0.3-0.3l0.2-0.2c0.1-0.1,0.1-0.1,0.2-0.1c0.1,0,0.2,0.1,0.3,0.3c0.1,0.2,0.5,0.7,1.1,1.5
	c0.6,0.8,1,1.4,1.4,1.8c0.1,0.2,0.2,0.3,0.2,0.3c0.2,0.2,0.4,0.3,0.6,0.3c0.1,0,0.2,0,0.5,0c0.2,0,0.3,0,0.4,0c0.3,0,0.6,0,1.1,0.1
	c0.1,0,0.1,0,0.2,0c0.1,0,0.2,0,0.2-0.2c0-0.1-0.1-0.2-0.2-0.2l-0.1,0c-0.6-0.2-1.1-0.4-1.4-0.8C62,45,61.3,44,60.2,42.6L59.7,42
	c-0.2-0.3-0.3-0.5-0.3-0.6c0-0.1,0.2-0.4,0.5-0.7c0.1-0.1,0.3-0.3,0.7-0.6c0.7-0.7,1.2-1.1,1.6-1.4c0.4-0.3,0.7-0.4,1-0.5
	c0.2,0,0.3-0.1,0.3-0.2c0-0.1-0.1-0.2-0.2-0.2c-0.2,0-0.5,0-0.9,0.1c-0.2,0-0.4,0-0.5,0c-0.2,0-0.5,0-1-0.1c-0.2,0-0.4,0-0.5,0
	c-0.2,0-0.2,0-0.2,0.2c0,0.1,0.1,0.2,0.2,0.2c0.2,0,0.3,0,0.4,0.1c0.1,0.1,0.2,0.2,0.2,0.3c0,0.4-0.6,1.1-1.8,2.2l-0.9,0.8l-0.6,0.6
	c-0.2,0.1-0.3,0.2-0.3,0.2c-0.1,0-0.1-0.1-0.1-0.2v-2.3L57.3,39.6L57.3,39.6z M68.8,39l-0.4-0.5C68.1,38.2,68,38,67.9,38
	c-0.1-0.1-0.2-0.1-0.3-0.1c-0.1,0-0.2,0-0.3,0c-0.4,0-0.7,0.1-1.1,0.1l-0.3,0l-0.4,0c-0.2,0-0.2,0.1-0.2,0.2c0,0.1,0.1,0.2,0.2,0.2
	c1,0.1,1.4,0.8,1.4,2.1v2.8l0,1.5c0,0.5-0.1,0.9-0.2,1.2c-0.1,0.3-0.4,0.5-0.7,0.5c-0.1,0-0.2,0.1-0.2,0.2c0,0.1,0.1,0.2,0.2,0.2
	c0.1,0,0.2,0,0.3,0c0.3-0.1,0.7-0.1,1.2-0.1c0.4,0,0.8,0,1.2,0.1c0.1,0,0.2,0,0.2,0c0.1,0,0.2-0.1,0.2-0.2c0-0.1-0.1-0.2-0.2-0.2
	c-0.7-0.1-1.1-0.3-1.2-0.8c-0.1-0.5-0.2-1.3-0.2-2.7v-2.5l0-0.2c0-0.2,0.1-0.3,0.2-0.3c0,0,0.1,0.1,0.2,0.2l5.8,6.5
	c0.1,0.1,0.2,0.1,0.2,0.1c0.1,0,0.1,0,0.1-0.2l0-0.8l0-0.5l0-0.7l0-0.5l0.1-4v-0.3c0-0.9,0.3-1.4,0.8-1.5c0.1,0,0.2-0.1,0.2-0.2
	c0-0.1-0.1-0.2-0.2-0.2c0,0-0.1,0-0.2,0C74,37.9,73.6,38,73.3,38c-0.2,0-0.3,0-0.6,0c-0.3,0-0.6-0.1-0.7-0.1c-0.1,0-0.2,0.1-0.2,0.2
	c0,0.1,0.1,0.1,0.2,0.2c0.6,0,1,0.2,1.2,0.6c0.2,0.3,0.3,1,0.3,2c0,0.8,0,1.8-0.1,2.7c0,0.3-0.1,0.4-0.2,0.4c-0.1,0-0.3-0.2-0.6-0.5
	l-0.2-0.2l-3.4-3.8C69.1,39.3,69,39.2,68.8,39L68.8,39L68.8,39z M79.3,38.1c-0.6,0.3-1.2,0.6-1.6,1.1c-0.4,0.4-0.6,0.9-0.8,1.4
	s-0.3,1.2-0.3,1.7c0,1.3,0.4,2.4,1.2,3.2c0.8,0.8,1.9,1.2,3.3,1.2c1.4,0,2.6-0.5,3.4-1.4c0.8-1,1.3-2.1,1.3-3.5c0-1.3-0.4-2.3-1.2-3
	c-0.8-0.8-1.9-1.2-3.2-1.2C80.6,37.7,80,37.9,79.3,38.1L79.3,38.1z M83,39c0.4,0.4,0.7,0.9,1,1.5s0.4,1.3,0.4,2
	c0,1.2-0.3,2.1-0.8,2.8c-0.5,0.7-1.2,1-2.1,1c-1,0-1.8-0.4-2.4-1.3s-0.9-1.9-0.9-3.3c0-1.1,0.2-2,0.7-2.7c0.5-0.6,1.2-1,2-1
	C81.7,38.2,82.4,38.5,83,39L83,39L83,39z M92.6,38.1c0,0.1,0.1,0.2,0.2,0.2l0.3,0c0.3,0,0.5,0.2,0.5,0.5c0,0.2,0,0.3-0.1,0.4
	s-0.3,0.4-0.7,0.8l-0.7,0.8l-0.3,0.3c-0.1,0.1-0.1,0.1-0.2,0.1c-0.1,0-0.2-0.1-0.3-0.3l-0.5-0.7l-0.4-0.6c-0.3-0.5-0.4-0.8-0.5-1.1
	c0-0.1,0-0.2,0.1-0.3s0.2-0.2,0.4-0.2c0.2,0,0.2-0.1,0.2-0.2c0-0.1-0.1-0.2-0.2-0.2c-0.1,0-0.2,0-0.4,0l-0.6,0.1c-0.2,0-0.5,0-0.8,0
	c-0.3,0-0.8,0-1.6-0.1c-0.2,0-0.3,0-0.4,0c-0.1,0-0.2,0.1-0.2,0.2c0,0.1,0.1,0.2,0.2,0.2c0.4,0.1,0.7,0.2,1,0.5
	c0.2,0.2,0.8,0.9,1.6,2c0.3,0.4,0.5,0.7,0.7,1c0.3,0.4,0.5,0.7,0.5,0.8s-0.2,0.3-0.5,0.6c-0.2,0.2-0.6,0.6-1.1,1.2
	c-0.6,0.7-1,1.2-1.3,1.4c-0.3,0.3-0.7,0.4-1,0.5c-0.1,0-0.2,0.1-0.2,0.2c0,0.1,0,0.1,0.1,0.1l0.2,0l0.3,0l0.6,0c0.2,0,0.4,0,0.6,0
	c0.5,0,1,0,1.6,0.1c0.1,0,0.2,0,0.2,0c0.1,0,0.1,0,0.1-0.2s-0.1-0.2-0.2-0.2c-0.7,0-1-0.2-1-0.6c0-0.3,0.5-1,1.5-2.1
	c0.2-0.2,0.3-0.3,0.4-0.5c0.1-0.1,0.1-0.1,0.2-0.1s0.1,0,0.1,0.1l0.3,0.4c0.5,0.7,0.9,1.2,1.1,1.5c0.2,0.3,0.3,0.6,0.3,0.7
	c0,0.3-0.2,0.5-0.5,0.5c-0.2,0-0.2,0.1-0.2,0.2c0,0.1,0.1,0.2,0.2,0.2c0.1,0,0.3,0,0.5,0l0.7,0c0.2,0,0.4,0,0.6,0c0.3,0,0.6,0,1,0
	l0.8,0.1c0.1,0,0.2,0,0.3,0c0.2,0,0.2-0.1,0.2-0.2c0-0.1-0.1-0.2-0.2-0.2c-0.5,0-0.9-0.2-1.2-0.5c-0.5-0.5-1.1-1.2-1.8-2.2
	c-0.4-0.6-0.7-1-0.8-1.2c-0.2-0.3-0.4-0.5-0.4-0.6c0-0.1,0.1-0.2,0.3-0.4c0.1,0,0.3-0.4,0.8-1c0.7-0.8,1.3-1.5,1.8-1.9
	c0.2-0.2,0.5-0.2,0.8-0.3c0.1,0,0.2-0.1,0.2-0.2s-0.1-0.2-0.2-0.2c-0.1,0-0.2,0-0.4,0l-0.8,0.1c-0.2,0-0.4,0-0.6,0
	c-0.3,0-0.7,0-1.1,0c-0.1,0-0.2,0-0.2,0C92.7,37.9,92.6,37.9,92.6,38.1L92.6,38.1L92.6,38.1z M100.6,38.8c0-0.3,0.2-0.5,0.5-0.5
	c0.2,0,0.3-0.1,0.3-0.2c0-0.1-0.1-0.2-0.2-0.2c-0.1,0-0.3,0-0.6,0l-0.7,0l-1.1,0c-0.3,0-0.5,0-0.8,0c-0.1,0-0.2,0-0.2,0
	c-0.1,0-0.2,0.1-0.2,0.2c0,0.1,0.1,0.2,0.3,0.2c0.3,0.1,0.5,0.2,0.7,0.5c0.2,0.2,0.4,0.8,0.7,1.5c0.2,0.7,0.6,1.4,0.9,2.3l1.5,3.4
	l0.2,0.4l0.2,0.3c0.1,0.1,0.1,0.2,0.2,0.2c0.1,0,0.2-0.1,0.3-0.3c0-0.1,0.2-0.3,0.4-0.8c0-0.1,0.2-0.5,0.6-1.3l1.1-2.4l0.9-2.2
	c0.3-0.7,0.5-1.1,0.7-1.3s0.4-0.3,0.6-0.4c0.1,0,0.2-0.1,0.2-0.2c0-0.1,0-0.2-0.1-0.2c-0.1,0-0.1,0-0.3,0c-0.3,0-0.6,0.1-1,0.1
	c-0.1,0-0.3,0-0.6,0l-0.7,0c-0.2,0-0.3,0-0.4,0c-0.1,0-0.2,0-0.2,0.2c0,0.1,0.1,0.2,0.2,0.2c0.3,0,0.6,0.2,0.8,0.3
	c0.2,0.2,0.3,0.4,0.3,0.7c0,0.5-0.2,1.2-0.7,2.3l-1.4,3.2c-0.1,0.1-0.1,0.2-0.2,0.2c-0.1,0-0.1-0.1-0.2-0.2l-1.4-3.5
	C100.8,39.9,100.6,39.2,100.6,38.8L100.6,38.8L100.6,38.8z M111.5,39.2c0-0.4,0-0.6,0.1-0.7s0.3-0.2,0.6-0.3c0.1,0,0.1,0,0.2-0.1
	c0,0,0-0.1,0-0.2c0-0.1-0.1-0.2-0.2-0.2c-0.2,0-0.6,0-1,0l-0.5,0c-0.3,0-0.7,0-0.9,0c-0.4,0-0.6,0-0.8,0c-0.2,0-0.3,0-0.3,0
	c-0.1,0-0.2,0-0.2,0.2c0,0.1,0,0.1,0.1,0.2c0.1,0,0.2,0.1,0.4,0.1c0.4,0.1,0.6,0.2,0.8,0.3c0.1,0.2,0.2,0.4,0.2,0.8v5.1l0,0.6
	c0,0.4-0.1,0.6-0.2,0.8c-0.1,0.2-0.3,0.3-0.6,0.4l-0.2,0.2l0,0c0,0.1,0.1,0.1,0.2,0.1c0.1,0,0.2,0,0.5-0.1c0.2,0,0.6-0.1,1-0.1
	c0.3,0,0.8,0,1.3,0.1c0.2,0,0.4,0,0.5,0c0.3,0,0.4-0.1,0.4-0.2c0-0.1-0.1-0.2-0.3-0.2c-0.3,0-0.6-0.1-0.8-0.3s-0.3-0.4-0.4-0.8
	l-0.1-0.6L111.5,39.2L111.5,39.2z M117.7,39.1c0-0.6,0.2-0.9,0.7-0.9c0.2,0,0.3-0.1,0.3-0.2c0-0.1-0.1-0.2-0.4-0.2c-0.3,0-0.7,0-1,0
	c-0.4,0-0.8,0.1-1,0.1c-0.1,0-0.3,0-0.6,0l-0.3,0c-0.1,0-0.2,0-0.2,0c-0.1,0-0.1,0-0.2,0c-0.1,0-0.2,0.1-0.2,0.2
	c0,0.1,0.1,0.2,0.2,0.2l0.4,0.1c0.6,0.1,0.8,0.5,0.8,1.2v5.3c0,0.5-0.1,0.9-0.2,1.1c-0.1,0.2-0.3,0.4-0.6,0.4
	c-0.1,0-0.2,0.1-0.2,0.2c0,0.1,0.1,0.2,0.2,0.2c0.1,0,0.2,0,0.3,0c0.6-0.1,1.1-0.1,1.6-0.1c0.3,0,0.6,0,0.8,0l0.7,0
	c0.4,0,0.7,0,0.8,0c0.3,0,0.5,0,0.6,0c0.5,0,1-0.2,1.3-0.6c0.3-0.4,0.5-0.9,0.5-1.5c0-0.2,0-0.3-0.1-0.3c-0.1,0-0.2,0.1-0.3,0.4
	c-0.6,0.8-1.6,1.3-3.1,1.3c-0.3,0-0.5,0-0.6-0.1c-0.2-0.1-0.3-0.5-0.3-1.3L117.7,39.1L117.7,39.1z M126.5,39.1
	c0-0.6,0.2-0.9,0.7-0.9c0.2,0,0.3-0.1,0.3-0.2c0-0.1-0.1-0.2-0.4-0.2c-0.3,0-0.7,0-1,0c-0.4,0-0.8,0.1-1,0.1c-0.1,0-0.3,0-0.6,0
	l-0.3,0c-0.1,0-0.2,0-0.2,0c-0.1,0-0.1,0-0.2,0c-0.1,0-0.2,0.1-0.2,0.2c0,0.1,0.1,0.2,0.2,0.2l0.4,0.1c0.6,0.1,0.8,0.5,0.8,1.2v5.3
	c0,0.5-0.1,0.9-0.2,1.1c-0.1,0.2-0.3,0.4-0.6,0.4c-0.1,0-0.2,0.1-0.2,0.2c0,0.1,0.1,0.2,0.2,0.2c0.1,0,0.2,0,0.3,0
	c0.6-0.1,1.1-0.1,1.6-0.1c0.3,0,0.6,0,0.8,0l0.7,0c0.4,0,0.7,0,0.8,0c0.3,0,0.5,0,0.6,0c0.5,0,1-0.2,1.3-0.6
	c0.4-0.4,0.5-0.9,0.5-1.5c0-0.2,0-0.3-0.1-0.3c-0.1,0-0.2,0.1-0.4,0.4c-0.6,0.8-1.6,1.3-3.1,1.3c-0.3,0-0.5,0-0.6-0.1
	c-0.2-0.1-0.3-0.5-0.3-1.3L126.5,39.1L126.5,39.1z M135.3,39.1c0-0.4,0.1-0.6,0.3-0.7l0.4,0h0.8c0.7,0,1.2,0.1,1.5,0.3
	c0.3,0.2,0.5,0.5,0.5,0.9c0,0.2,0,0.3,0.1,0.3c0.2,0,0.2-0.2,0.2-0.5c0-0.2,0-0.4-0.1-0.8c0-0.2,0-0.4,0-0.5c0-0.1-0.1-0.2-0.2-0.2
	c0,0-0.1,0-0.1,0c-0.3,0-1.2,0.1-2.6,0.1l-2.4,0l-0.6,0c-0.1,0-0.2,0-0.3,0c-0.1,0-0.2,0-0.2,0c-0.1,0-0.2,0-0.2,0.2
	c0,0.1,0.1,0.2,0.2,0.2c0.5,0.1,0.8,0.2,1,0.4c0.2,0.2,0.2,0.5,0.2,1v5.1c0,0.4,0,0.7-0.1,0.9c-0.1,0.3-0.1,0.5-0.2,0.6
	c-0.1,0.1-0.2,0.2-0.5,0.3c-0.1,0-0.1,0.1-0.1,0.2c0,0.1,0.1,0.1,0.2,0.1c0.1,0,0.2,0,0.4,0c0.6,0,1.1-0.1,1.4-0.1
	c0.5,0,0.8,0,1.1,0l0.7,0.1c0.3,0,0.6,0,0.9,0c0.5,0,0.8-0.1,1.1-0.2s0.5-0.4,0.7-0.7c0.2-0.4,0.3-0.8,0.3-1.2c0-0.1,0-0.1-0.1-0.1
	c0,0-0.1,0-0.1,0c0,0-0.1,0-0.1,0.1c-0.5,1-1.7,1.6-3.4,1.6c-0.2,0-0.4,0-0.4-0.1c-0.1-0.1-0.2-0.2-0.3-0.4
	c-0.1-0.3-0.1-0.7-0.1-1.3v-0.6c0-0.5,0-0.8,0-1c0-0.2,0.1-0.3,0.1-0.4c0.1-0.1,0.2-0.1,0.4-0.1h0.4c0.4,0,0.7,0,0.9,0
	c0.2,0,0.3,0.1,0.4,0.2c0.2,0.2,0.3,0.5,0.4,0.8c0,0.2,0.1,0.2,0.2,0.2c0.1,0,0.1,0,0.1,0c0,0,0-0.1,0-0.1l0-0.3c0-0.2,0-0.5,0-0.9
	c0-0.5-0.1-0.8-0.1-1c0-0.1,0-0.2,0-0.3c0-0.2,0-0.2,0-0.3c0-0.1-0.1-0.2-0.1-0.2c-0.1,0-0.1,0-0.2,0.1l-0.1,0.3
	c-0.2,0.5-0.6,0.7-1,0.7h-0.5l-0.3,0l-0.2,0c-0.2,0-0.4,0-0.4-0.2s-0.1-0.4-0.1-0.8v-1.4L135.3,39.1L135.3,39.1z"/>
<polygon class="st1" points="46.6,46.6 46.6,0 0,0 0,46.6 "/>
<path class="st2" d="M40.7,5.9v11.8h-4.3c0-2.2-2.1-3.9-4.8-3.9c-1.9,0-3.6,0.9-4.4,2.3v14.7c0,3.1,2.4,5.7,5.4,5.7h0v4.3H13.9v-4.3
	h0c3,0,5.4-2.5,5.4-5.7V16c-0.8-1.4-2.4-2.3-4.4-2.3c-2.6,0-4.8,1.8-4.8,3.9H5.9V5.9H40.7L40.7,5.9z"/>
</svg>
